<svg width="64" height="64" viewBox="0 0 64 64" fill="none" xmlns="http://www.w3.org/2000/svg">
<path d="M62.6429 32C62.6429 40.127 59.4144 47.9212 53.6678 53.6678C47.9211 59.4145 40.127 62.6429 32 62.6429C23.873 62.6429 16.0789 59.4145 10.3322 53.6678C4.58558 47.9212 1.35714 40.127 1.35714 32M62.6429 32C62.6429 23.873 59.4144 16.0789 53.6678 10.3323C47.9211 4.58561 40.127 1.35718 32 1.35718C23.873 1.35718 16.0789 4.58561 10.3322 10.3323C4.58558 16.0789 1.35714 23.873 1.35714 32M62.6429 32H1.35714" stroke="#4285F4" stroke-width="2" stroke-linecap="round" stroke-linejoin="round"/>
<path d="M43.7857 32C43.2068 43.2058 39.0793 53.9372 32 62.6429C24.9207 53.9372 20.7932 43.2058 20.2143 32C20.7932 20.7942 24.9207 10.0628 32 1.35718C39.0793 10.0628 43.2068 20.7942 43.7857 32Z" stroke="#4285F4" stroke-width="2" stroke-linecap="round" stroke-linejoin="round"/>
</svg>
